<svg id="Layer_1" data-name="Layer 1" xmlns="http://www.w3.org/2000/svg" viewBox="0 0 2100 2100"><defs><style>.cls-1{fill:#547d8c;stroke:#f6eabe;stroke-width:30px;}.cls-1,.cls-8{stroke-miterlimit:10;}.cls-2{fill:#a7584b;}.cls-2,.cls-3,.cls-4,.cls-5,.cls-6,.cls-7{fill-rule:evenodd;}.cls-3{fill:#934b41;}.cls-4{fill:#f7ebbe;}.cls-5{fill:#364548;}.cls-6{fill:#b58a8a;}.cls-7{fill:#d8bfbf;}.cls-8{fill:none;stroke:#f7ebbe;stroke-width:20px;}</style></defs><title>docker</title><path class="cls-1" d="M971.51,373.87c254.21,64.92,442.19,295.45,442.19,569.9,0,6.26-.13,12.5-.33,18.71l-395.6-56.27A196.1,196.1,0,0,0,915.21,769.65ZM651.43,854.09A196.09,196.09,0,0,1,788,751.53l56.28-395.6c-6.22-.2-12.45-.33-18.71-.33-274.44,0-505,188-569.89,442.19Zm84.44,263.8A196.1,196.1,0,0,1,633.31,981.33l-395.6-56.28c-.19,6.22-.32,12.46-.32,18.72,0,274.43,188,505,442.18,569.89Zm263.79-84.44A196.08,196.08,0,0,1,863.1,1136l-56.27,395.62c6.22.19,12.45.32,18.71.32,274.44,0,505-188,569.89-442.19Z"/><path class="cls-2" d="M1768.83,956.48c14-108.39-67.16-193.51-117.46-233.93-58,67-67,242.65,24,316.6-50.75,45.07-157.69,85.93-267.19,85.93H75.26c-10.64,114.3,9.42,219.56,55.25,309.65l15.16,27.75a515.62,515.62,0,0,0,31.43,47.15q82.2,5.28,151.55,3.71h0c90.83-2,165-12.74,221.12-32.2a16,16,0,0,1,10.49,30.25c-7.47,2.6-15.26,5-23.3,7.32h0c-44.23,12.64-91.66,21.13-152.86,24.91,3.64.06-3.78.54-3.8.54-2.08.14-4.7.44-6.79.55-24.09,1.35-50.08,1.63-76.66,1.63-29.07,0-57.69-.54-89.7-2.18l-.82.55C317.38,1669.53,491,1744.4,708.7,1744.4c460.67,0,851.41-204.21,1024.44-662.67,122.75,12.6,240.73-18.71,294.39-123.47-85.47-49.33-195.4-33.6-258.7-1.78"/><path class="cls-2" d="M1768.83,956.48c14-108.39-67.16-193.51-117.46-233.93-58,67-67,242.65,24,316.6-50.75,45.07-157.69,85.93-267.19,85.93h-1254c-5.44,175.05,59.52,307.93,174.45,388.26h0c90.83-2,165-12.74,221.12-32.2a16,16,0,0,1,10.49,30.25c-7.47,2.6-15.26,5-23.3,7.32h0c-44.23,12.64-95.74,22.22-156.93,26,0,0-1.48-1.41-1.5-1.41,156.78,80.42,384.1,80.13,644.73-20,292.24-112.27,564.18-326.16,753.92-570.8-2.85,1.29-5.64,2.61-8.34,4"/><path class="cls-3" d="M77.76,1264c8.28,61.23,26.19,118.56,52.75,170.77l15.16,27.75a513.57,513.57,0,0,0,31.43,47.15q82.22,5.28,151.57,3.71c90.83-2,165-12.74,221.12-32.2a16,16,0,0,1,10.49,30.25c-7.47,2.6-15.26,5-23.3,7.32h0c-44.23,12.64-95.46,21.68-156.66,25.46-2.1.13-5.76.16-7.88.27-24.07,1.35-49.8,2.18-76.39,2.18-29.06,0-58.78-.56-90.77-2.19,111.06,124.83,285.78,200,503.45,200,394.38,0,737.5-149.7,936.64-480.44H77.76"/><path class="cls-2" d="M166.18,1264c23.58,107.51,80.24,191.9,162.49,249.38,90.83-2,165-12.74,221.12-32.2a16,16,0,0,1,10.49,30.25c-7.47,2.6-15.26,5-23.3,7.32h0c-44.23,12.64-96.55,21.68-157.75,25.46,156.77,80.4,383.44,79.25,644.05-20.86,157.66-60.57,309.4-150.74,445.53-259.35H166.18"/><path class="cls-4" d="M633.12,1385a49.73,49.73,0,1,1,1.32,99.46H633.1a49.73,49.73,0,0,1,0-99.46"/><path class="cls-5" d="M633.12,1399.09A35.41,35.41,0,0,1,646,1401.5a14.52,14.52,0,1,0,20,19.55,35.61,35.61,0,1,1-32.9-22"/><path class="cls-6" d="M765.3,1743.32c-123.15-58.43-190.74-137.88-228.35-224.6q-68.63,19.58-164.63,25-36.09,2-75.94,2-46,0-96.81-2.7c112.94,112.88,251.88,199.78,509.13,201.36q28.49,0,56.6-1.08"/><path class="cls-7" d="M582.69,1598.74c-17-23.13-33.56-52.2-45.71-80-45.75,13.07-100.75,21.42-164.66,25,43.9,23.82,106.67,45.89,210.38,55"/><path class="cls-8" d="M1772.94,954.47h0q-2.09,1-4.11,2a193.63,193.63,0,0,0,1.59-25c-.1-68.65-36.89-126.57-74.81-167.69-6.32-6.85-12.67-13.24-18.89-19.13-1.77-1.68-3.54-3.33-5.29-4.93-7-6.41-13.77-12.16-20.06-17.21-58,67-67,242.65,24,316.59-50.76,45.08-157.69,85.94-267.19,85.94H75.25A611.71,611.71,0,0,0,77.76,1264h0c.1.73.21,1.45.31,2.18.29,2.09.6,4.19.91,6.27.22,1.48.45,2.95.68,4.42l.63,3.92c.37,2.22.75,4.42,1.15,6.63.21,1.19.43,2.38.65,3.58q.57,3.11,1.18,6.19c.24,1.21.48,2.42.73,3.62.38,1.85.76,3.69,1.16,5.53.2.93.39,1.88.6,2.81.53,2.39,1.07,4.76,1.63,7.13.22,1,.45,1.94.68,2.91.58,2.38,1.16,4.76,1.76,7.12l.69,2.66c.57,2.2,1.15,4.38,1.75,6.57.23.85.47,1.7.71,2.55.59,2.15,1.21,4.29,1.83,6.43.23.79.46,1.58.7,2.37.71,2.41,1.45,4.81,2.2,7.21.25.82.51,1.63.77,2.45q1.16,3.63,2.35,7.23c.23.69.47,1.37.7,2q1.11,3.27,2.25,6.53c.19.52.37,1,.56,1.57q1.32,3.7,2.69,7.36c.26.7.53,1.41.79,2.12q1.36,3.6,2.78,7.17l.81,2q1.47,3.66,3,7.31c.19.44.38.88.56,1.32,1,2.27,1.93,4.52,2.91,6.77l.65,1.47c1.07,2.44,2.18,4.87,3.29,7.29l.8,1.73q1.7,3.65,3.44,7.25c.22.47.45.92.68,1.39q1.86,3.83,3.79,7.62l15.16,27.75a513.57,513.57,0,0,0,31.43,47.15q61.65,4,116.08,4,18.13,0,35.48-.34h0c90.84-2,165-12.74,221.13-32.2a16,16,0,0,1,20.05,10.54,14,14,0,0,1,.39,1.51,15.82,15.82,0,0,1,.34,3,16,16,0,0,1-10.29,15.16c-7.48,2.6-15.26,5-23.3,7.32h0l-.42.12c-2,.56-3.95,1.1-5.94,1.65q-23.68,6.42-50.55,11.22a891.64,891.64,0,0,1-101.48,11.65l-.08,0,.05,0-6.24.37q-36.1,2-75.95,2-45.94,0-96.8-2.7c101.25,101.19,223.41,181.49,433,198.18q33.81,2.87,69.22,3.14c2.32,0,4.63,0,7,0,3.37,0,6.74,0,10.1,0l3.16,0h1.7l5.22-.06,3.78,0,6.34-.11,3.91-.09c2.11,0,4.21-.1,6.31-.15l3.79-.1,6.82-.22,3.19-.11c3.31-.11,6.63-.24,9.93-.38l.64,0c3.1-.13,6.19-.28,9.28-.43l3.39-.17,6.52-.35,3.93-.23,6-.36,4-.26,6-.41,4-.28,6.3-.47,3.55-.28c3.09-.24,6.19-.5,9.28-.77l2.35-.21q3.84-.33,7.67-.69l3.92-.38c1.93-.19,3.86-.37,5.78-.57l4.31-.44,5.39-.57,4.43-.49,5.3-.6,4.41-.51,5.43-.66,4.21-.52,7.08-.92q2.91-.37,5.81-.78l5.74-.79c1.54-.21,3.07-.44,4.61-.66l4.86-.7,4.81-.73,4.64-.71,4.9-.77,4.49-.73,5-.82,4.32-.73,5.1-.87,3.55-.64q5.36-.94,10.69-2l3.59-.67c1.83-.34,3.65-.7,5.47-1.05l3.75-.74,5.46-1.09,3.7-.75,5.51-1.15,3.49-.74,5.72-1.23,2.9-.65q10.93-2.41,21.78-5l1.43-.35c2.14-.51,4.27-1,6.4-1.57l2.55-.63,6.17-1.57,2.66-.68,6.21-1.62,2.39-.64,6.52-1.76,1.35-.37q15.55-4.27,30.89-9l1.31-.4,6.92-2.15,1.56-.49c2.33-.73,4.64-1.47,7-2.22l1.19-.38q19.83-6.43,39.3-13.56l.07,0,7.67-2.84.44-.17c257-96.62,462.36-287.44,575.18-586.37,122.75,12.6,240.73-18.71,294.39-123.47C1943.87,910,1836.8,924,1772.94,954.47Z"/></svg>